<svg viewBox="0 0 658 182" xmlns="http://www.w3.org/2000/svg" xml:space="preserve" style="fill-rule:evenodd;clip-rule:evenodd;stroke-linejoin:round;stroke-miterlimit:2"><path d="M72.182 26.472h-2.441v3.713h2.587c.775 0 1.33-.19 1.637-.555.322-.38.483-.819.483-1.316 0-1.111-.877-1.842-2.266-1.842Zm-2.441-3.99v3.084h2.324c.687 0 1.827-.307 1.827-1.579 0-.92-.643-1.505-1.71-1.505h-2.441Zm4.02 3.479c1.242.351 1.827 1.359 1.827 2.426 0 .819-.293 1.492-.862 2.017-.571.512-1.287.775-2.164.775h-3.976v-9.677h3.625c1.681 0 2.821.834 2.821 2.354 0 .818-.453 1.637-1.271 2.046v.059ZM84.94 30.653c-.745.453-1.681.672-2.836.672-1.564 0-2.777-.453-3.654-1.374-.877-.921-1.315-2.105-1.315-3.552s.482-2.645 1.432-3.61c.95-.965 2.149-1.448 3.596-1.448 1.038 0 1.842.146 2.412.439v1.082a5.124 5.124 0 0 0-2.28-.512c-1.126 0-2.062.365-2.821 1.096-.746.731-1.126 1.711-1.126 2.953 0 1.184.336 2.134 1.023 2.851.687.716 1.637 1.067 2.851 1.067.921 0 1.827-.249 2.718-.746v1.082ZM93.036 30.185v.994h-6.534v-9.662h6.169v.979h-4.985v3.114h4.604v.965h-4.604v3.61h5.35ZM99.567 29.089h-.234l-3.508-4.678-.029.03v6.738H94.67v-9.735h.249l4.546 6.139 4.517-6.139h.249v9.735h-1.126v-3.42c.015-1.506.015-2.646.015-3.436l-.044-.029-3.509 4.795ZM114.781 31.179h-1.14v-7.396h-.044l-6.753 7.499h-.264v-9.765h1.155v7.353h.059l6.753-7.47h.234v9.779ZM118.315 22.482v4.502h1.989c.774 0 1.359-.219 1.754-.658.394-.453.599-.979.599-1.578a2.21 2.21 0 0 0-.643-1.594c-.424-.453-1.053-.672-1.901-.672h-1.798Zm-1.184 8.697v-9.648h3.304c1.082 0 1.93.322 2.529.951.614.628.921 1.374.921 2.236 0 .979-.336 1.769-.994 2.369-.658.599-1.477.891-2.456.891h-2.105v3.201h-1.199ZM132.975 31.179h-1.155v-4.59h-5.16v4.59h-1.184v-9.662h1.184v4.078h5.16v-4.078h1.155v9.662ZM138.673 23.724l-1.886 4.415h3.83l-1.886-4.415h-.058Zm3.216 7.455-.921-2.178h-4.547l-.906 2.178h-1.155l4.269-9.75h.219l4.239 9.75h-1.198ZM143.596 31.179l3.275-3.713c-.849-.16-1.521-.511-2.018-1.052-.482-.555-.731-1.184-.731-1.871 0-.951.336-1.681.994-2.207.658-.541 1.447-.805 2.339-.805h3.45v9.648h-1.184v-8.697h-2.091c-1.403 0-2.324.818-2.324 2.148 0 .6.263 1.126.804 1.579.541.453 1.33.687 2.368.731v.19l-3.435 4.049h-1.447ZM73.468 44.826h-.234l-3.508-4.677-.029.029v6.739h-1.126v-9.736h.249l4.546 6.139 4.517-6.139h.248v9.736h-1.125v-3.421c.014-1.506.014-2.646.014-3.435l-.043-.03-3.509 4.795ZM87.015 45.923v.994h-6.534v-9.663h6.169v.98h-4.985v3.113h4.604v.965h-4.604v3.611h5.35ZM95.038 38.234h-3.07v8.683h-1.184v-8.683h-3.099v-.995h7.353v.995ZM102.959 45.923v.994h-6.535v-9.663h6.17v.98h-4.986v3.113h4.605v.965h-4.605v3.611h5.351ZM106.435 44.943c.687.746 1.623 1.111 2.777 1.111 1.126 0 2.047-.38 2.749-1.14.716-.775 1.067-1.71 1.067-2.821 0-1.126-.366-2.062-1.082-2.821-.716-.775-1.623-1.155-2.734-1.155s-2.031.38-2.748 1.14c-.716.76-1.067 1.71-1.067 2.836 0 1.155.351 2.105 1.038 2.85Zm-.906.716c-.892-.935-1.345-2.119-1.345-3.566 0-1.389.482-2.573 1.461-3.538.98-.979 2.179-1.462 3.567-1.462 1.433 0 2.617.483 3.567 1.448.95.95 1.418 2.134 1.418 3.552 0 1.418-.468 2.602-1.418 3.552-.935.95-2.119 1.418-3.567 1.418-1.549 0-2.777-.468-3.683-1.404ZM117.307 38.219v4.502h1.988c.775 0 1.36-.219 1.754-.657.395-.453.599-.98.599-1.579 0-.629-.219-1.155-.643-1.594-.424-.453-1.052-.672-1.9-.672h-1.798Zm-1.184 8.698v-9.648h3.304c1.081 0 1.929.322 2.528.95.614.628.921 1.374.921 2.237 0 .979-.336 1.768-.994 2.368-.657.599-1.476.892-2.455.892h-2.105v3.201h-1.199ZM126.309 44.943c.687.746 1.623 1.111 2.777 1.111 1.126 0 2.047-.38 2.749-1.14.716-.775 1.067-1.71 1.067-2.821 0-1.126-.366-2.062-1.082-2.821-.716-.775-1.623-1.155-2.734-1.155-1.11 0-2.031.38-2.748 1.14-.716.76-1.067 1.71-1.067 2.836 0 1.155.351 2.105 1.038 2.85Zm-.906.716c-.892-.935-1.345-2.119-1.345-3.566 0-1.389.482-2.573 1.461-3.538.98-.979 2.179-1.462 3.567-1.462 1.433 0 2.617.483 3.567 1.448.95.95 1.418 2.134 1.418 3.552 0 1.418-.468 2.602-1.418 3.552-.935.95-2.119 1.418-3.567 1.418-1.549 0-2.777-.468-3.683-1.404ZM141.888 38.175h-3.377l-.526 5.277c-.117 1.214-.351 2.12-.701 2.69-.351.57-.98.921-1.901 1.053l-.482-.863c.701-.161 1.184-.424 1.432-.789.249-.366.424-.98.512-1.813l.629-6.461h5.613v9.648h-1.199v-8.742ZM147.279 44.943c.687.746 1.623 1.111 2.778 1.111 1.125 0 2.046-.38 2.748-1.14.716-.775 1.067-1.71 1.067-2.821 0-1.126-.365-2.062-1.082-2.821-.716-.775-1.622-1.155-2.733-1.155s-2.032.38-2.748 1.14c-.717.76-1.067 1.71-1.067 2.836 0 1.155.35 2.105 1.037 2.85Zm-.906.716c-.892-.935-1.345-2.119-1.345-3.566 0-1.389.483-2.573 1.462-3.538.979-.979 2.178-1.462 3.567-1.462 1.432 0 2.616.483 3.566 1.448.951.95 1.418 2.134 1.418 3.552 0 1.418-.467 2.602-1.418 3.552-.935.95-2.119 1.418-3.566 1.418-1.55 0-2.778-.468-3.684-1.404ZM158.166 38.234v8.683h-1.184v-9.663h6.212v.98h-5.028ZM172.796 46.917h-1.14V39.52h-.044l-6.754 7.499h-.263v-9.765h1.155v7.353h.059l6.753-7.47h.234v9.78ZM180.964 46.917v-4.503a8.326 8.326 0 0 1-2.763.483c-2.09 0-3.23-1.067-3.23-2.778v-2.865h1.184v2.617c0 1.388.803 2.09 2.397 2.09a6.28 6.28 0 0 0 2.412-.468v-4.239h1.199v9.663h-1.199ZM191.062 45.923v.994h-6.534v-9.663h6.169v.98h-4.985v3.113h4.604v.965h-4.604v3.611h5.35ZM200.108 46.39c-.746.453-1.681.673-2.836.673-1.564 0-2.777-.453-3.654-1.374-.877-.921-1.316-2.105-1.316-3.553 0-1.446.483-2.645 1.433-3.61.949-.965 2.148-1.447 3.595-1.447 1.039 0 1.842.146 2.413.438v1.082a5.127 5.127 0 0 0-2.281-.511c-1.126 0-2.061.365-2.821 1.096-.746.731-1.125 1.71-1.125 2.952 0 1.184.335 2.135 1.022 2.851.687.716 1.638 1.067 2.851 1.067.921 0 1.827-.248 2.719-.745v1.081ZM202.853 37.254V41.8l4.444-4.546h1.36l-4.503 4.649 4.912 5.014h-1.491l-4.722-4.912v4.912h-1.184v-9.663h1.184ZM213.726 39.462l-1.885 4.414h3.829l-1.885-4.414h-.059Zm3.216 7.455-.921-2.179h-4.546l-.906 2.179h-1.155l4.269-9.75h.219l4.239 9.75h-1.199ZM218.65 46.917l3.274-3.713c-.848-.161-1.52-.512-2.017-1.053-.483-.555-.731-1.184-.731-1.871 0-.95.336-1.681.994-2.207.658-.541 1.447-.804 2.339-.804h3.449v9.648h-1.184v-8.698h-2.09c-1.403 0-2.324.819-2.324 2.149 0 .599.263 1.125.804 1.578.541.454 1.33.687 2.368.731v.19l-3.435 4.05h-1.447ZM70.413 60.681c.687.745 1.623 1.111 2.777 1.111 1.126 0 2.047-.38 2.749-1.14.716-.775 1.067-1.71 1.067-2.821 0-1.126-.366-2.062-1.082-2.822-.716-.774-1.623-1.154-2.734-1.154-1.11 0-2.031.38-2.748 1.14-.716.76-1.067 1.71-1.067 2.836 0 1.155.351 2.105 1.038 2.85Zm-.906.716c-.892-.935-1.345-2.119-1.345-3.566 0-1.389.482-2.573 1.461-3.538.98-.979 2.179-1.462 3.567-1.462 1.433 0 2.617.483 3.567 1.447.95.951 1.418 2.135 1.418 3.553 0 1.418-.468 2.601-1.418 3.551-.935.951-2.119 1.418-3.567 1.418-1.549 0-2.777-.467-3.683-1.403ZM81.285 53.957v4.502h1.988c.775 0 1.36-.219 1.754-.658.395-.453.599-.979.599-1.579 0-.628-.219-1.154-.643-1.593-.423-.453-1.052-.672-1.9-.672h-1.798Zm-1.184 8.697v-9.647h3.304c1.081 0 1.929.321 2.529.95.613.629.92 1.374.92 2.237 0 .979-.335 1.768-.994 2.367-.657.6-1.476.892-2.455.892H81.3v3.201h-1.199ZM89.629 53.971v8.683h-1.184v-9.662h6.213v.979h-5.029ZM97.945 55.199l-1.885 4.415h3.829l-1.886-4.415h-.058Zm3.217 7.455-.921-2.178h-4.547l-.906 2.178h-1.155l4.268-9.75h.22l4.239 9.75h-1.198ZM111.216 62.654h-1.155v-4.589h-5.16v4.589h-1.184v-9.662h1.184v4.078h5.16v-4.078h1.155v9.662ZM121.767 62.654h-1.14v-7.396h-.044l-6.753 7.499h-.264v-9.765h1.155v7.353h.059l6.753-7.47h.234v9.779ZM124.774 62.625c-.584-.117-1.067-.278-1.432-.497v-1.081c.892.511 1.827.76 2.836.76 2.119 0 3.215-.834 3.215-2.105 0-1.126-1.11-1.799-2.645-1.799h-1.169v-.906h1.125c1.521 0 2.354-.731 2.354-1.608 0-.95-1.01-1.564-2.427-1.564a7.46 7.46 0 0 0-1.462.176 5.392 5.392 0 0 0-1.462.467v-1.066c.41-.191.907-.337 1.477-.439.584-.102 1.096-.161 1.549-.161 2.12 0 3.538.892 3.538 2.456 0 .862-.585 1.783-1.637 2.09v.058c1.271.249 1.944 1.199 1.944 2.325 0 .892-.366 1.637-1.097 2.207-.716.57-1.754.862-3.084.862a8.548 8.548 0 0 1-1.623-.175ZM135.867 55.199l-1.886 4.415h3.83l-1.886-4.415h-.058Zm3.216 7.455-.921-2.178h-4.546l-.907 2.178h-1.154l4.268-9.75h.219l4.24 9.75h-1.199ZM149.268 61.675h1.374v3.289h-1.125v-2.31h-7.879v-9.662h1.184v8.683h5.277v-8.683h1.169v8.683ZM160.17 62.654h-1.14v-7.396h-.044l-6.753 7.499h-.263v-9.765h1.154v7.353h.059l6.753-7.47h.234v9.779ZM161.687 62.654l3.275-3.712c-.848-.161-1.521-.512-2.018-1.053-.482-.555-.731-1.184-.731-1.871 0-.95.337-1.681.994-2.207.658-.541 1.448-.804 2.339-.804h3.45v9.647h-1.184v-8.697h-2.09c-1.404 0-2.325.819-2.325 2.149 0 .599.264 1.125.805 1.578.541.453 1.33.687 2.368.731v.19l-3.436 4.049h-1.447Z" style="fill:#005398;fill-rule:nonzero" transform="translate(-284.009 -88.92) scale(4.16667)"/></svg>